PathFileType	3	(X/Y/Z)	D:\VICON_DB\Goncalves\Pilot01\09-03-2026\static_01.trc
DataRate	CameraRate	NumFrames	NumMarkers	Units	OrigDataRate	OrigDataStartFrame	OrigNumFrames
200.0	200.0	4	40	mm	200.0	241	321
Frame#	Time	LASI			RASI			LPSI			RPSI			LTHI			LTHAP			LTHAD			LKNE			LKNM			LTIB			LTIAP			LTIAD			LANK			LMED			LHEE			LTOE			LFMH			LSMH			LVMH			RTHI			RTHAP			RTHAD			RKNE			RKNM			RTIB			RTIAP			RTIAD			RANK			RMED			RHEE			RTOE			RFMH			RSMH			RVMH			RHJC			LHJC			RKJC			LKJC			RAJC			LAJC
		X1	Y1	Z1	X2	Y2	Z2	X3	Y3	Z3	X4	Y4	Z4	X5	Y5	Z5	X6	Y6	Z6	X7	Y7	Z7	X8	Y8	Z8	X9	Y9	Z9	X10	Y10	Z10	X11	Y11	Z11	X12	Y12	Z12	X13	Y13	Z13	X14	Y14	Z14	X15	Y15	Z15	X16	Y16	Z16	X17	Y17	Z17	X18	Y18	Z18	X19	Y19	Z19	X20	Y20	Z20	X21	Y21	Z21	X22	Y22	Z22	X23	Y23	Z23	X24	Y24	Z24	X25	Y25	Z25	X26	Y26	Z26	X27	Y27	Z27	X28	Y28	Z28	X29	Y29	Z29	X30	Y30	Z30	X31	Y31	Z31	X32	Y32	Z32	X33	Y33	Z33	X34	Y34	Z34	X35	Y35	Z35	X36	Y36	Z36	X37	Y37	Z37	X38	Y38	Z38	X39	Y39	Z39	X40	Y40	Z40
241	1.200000	115.540280	903.334110	-1062.663100	110.453390	903.845580	-1327.542200	300.570010	958.546020	-1175.790000	305.331420	954.659790	-1228.967400	123.230820	693.604800	-1030.658300	140.480730	767.439640	-1017.124300	167.608020	629.677190	-1006.846700	220.755220	474.712980	-1023.662900	197.230960	464.803130	-1151.799100	258.368710	281.613890	-1004.193500	200.905170	357.146450	-1059.394300	216.408840	254.785690	-1032.037100	273.134220	70.179260	-1027.249600	239.527850	81.128670	-1107.734400	314.929600	61.908134	-1080.613400	191.073490	71.898666	-1047.274500	134.007450	44.941822	-1072.916900	133.708150	39.255100	-1032.706900	149.224430	25.581280	-992.789120	155.834010	625.938780	-1379.945900	118.914810	751.764950	-1355.968400	103.202580	659.991390	-1333.866300	204.726500	490.514800	-1363.696800	203.292270	433.873630	-1243.630500	225.440050	296.233730	-1382.717300	185.941130	346.022030	-1327.587000	191.913160	264.687900	-1330.542500	269.030240	62.221931	-1355.728800	233.651720	89.705154	-1275.882900	305.018160	58.077530	-1313.936000	176.607700	69.016144	-1340.223300	126.119440	49.262413	-1315.147000	123.848750	40.530464	-1351.291900	139.797330	20.613600	-1388.909300	190.598336	832.099848	-1291.475025	194.236018	831.734092	-1102.057537	204.009385	462.194215	-1303.663650	208.993090	469.758055	-1087.731000	251.340980	75.963542	-1315.805850	256.331035	75.653965	-1067.492000
242	1.205000	115.459280	903.323970	-1062.686800	110.380480	903.840030	-1327.582400	300.846980	958.610050	-1175.500000	305.268950	954.672790	-1228.961900	123.172610	693.604550	-1030.674800	140.598080	767.238100	-1017.283000	167.562120	629.685550	-1006.850700	220.728490	474.717560	-1023.674700	197.221510	464.786870	-1151.793500	258.361360	281.628630	-1004.192600	200.843200	357.149720	-1059.360000	216.388470	254.779510	-1032.046400	272.641910	70.370026	-1027.364000	239.306790	81.118530	-1107.929300	314.915250	61.927151	-1080.626700	191.201660	71.788261	-1047.344100	134.020950	44.940163	-1072.915400	133.701780	39.254730	-1032.716700	149.227970	25.600922	-992.778320	155.823300	625.907530	-1379.932100	118.823970	751.743160	-1356.002600	103.153140	659.983830	-1333.884000	204.725130	490.495150	-1363.697900	203.242000	433.851990	-1243.644500	225.436540	296.228580	-1382.719500	185.917920	346.019470	-1327.581100	191.903670	264.699130	-1330.543600	269.038880	62.222157	-1355.728500	232.399250	90.235336	-1275.011700	305.018740	58.087959	-1313.950700	176.597520	69.020828	-1340.239500	126.089710	49.287106	-1315.177500	123.840420	40.522228	-1351.305100	139.800000	20.608393	-1388.910500	190.566675	832.099288	-1291.511938	194.198554	831.730251	-1102.083553	203.983565	462.173570	-1303.671200	208.975000	469.752215	-1087.734100	250.719065	76.228746	-1315.370100	255.974350	75.744278	-1067.646650
243	1.210000	115.391140	903.317200	-1062.694000	110.193130	903.934080	-1327.768300	300.846010	958.559080	-1174.600000	305.185150	954.683110	-1228.946400	123.120800	693.602360	-1030.677200	140.522190	767.234740	-1017.300600	167.507310	629.677430	-1006.864100	220.687700	474.726560	-1023.665500	197.204940	464.792270	-1151.802500	258.320340	281.631260	-1004.206300	200.822390	357.177950	-1059.372700	216.371690	254.780980	-1032.042700	273.131900	70.256187	-1027.278000	239.310730	81.131264	-1107.926800	314.912450	61.925934	-1080.638700	191.093350	71.912643	-1047.313500	134.018370	44.937027	-1072.921300	133.696780	39.261311	-1032.726200	149.207750	25.601900	-992.789920	155.793550	625.911990	-1379.914200	119.014820	751.711610	-1355.766000	103.116300	659.961910	-1333.896100	204.684070	490.528140	-1363.692300	203.281890	433.783110	-1243.644000	225.437620	296.214450	-1382.723500	185.909900	346.017520	-1327.586900	191.902450	264.699070	-1330.543900	269.042240	62.220749	-1355.725500	233.674510	89.723282	-1275.871700	305.020540	58.091232	-1313.946000	176.601140	69.029884	-1340.214600	126.123800	49.250595	-1315.158800	123.851190	40.521591	-1351.298500	139.721530	20.685713	-1388.979900	190.390607	832.096671	-1291.729343	194.107538	831.655560	-1102.183151	203.982980	462.155625	-1303.668150	208.946320	469.759415	-1087.734000	251.358375	75.972015	-1315.798600	256.221315	75.693725	-1067.602400
244	1.215000	115.325600	903.297060	-1062.689700	110.250430	903.877690	-1327.658200	301.590030	958.784060	-1173.910200	305.133640	954.679320	-1228.953900	123.074130	693.598940	-1030.684300	140.293640	767.415770	-1017.157900	167.470180	629.669370	-1006.864700	220.642960	474.732480	-1023.673400	197.163070	464.779940	-1151.816300	258.299900	281.638210	-1004.216200	200.818650	357.136600	-1059.359300	216.349440	254.788700	-1032.049700	272.925380	70.366943	-1027.195900	239.301790	81.107208	-1107.936400	314.927310	61.931004	-1080.656000	191.138490	71.830421	-1047.376000	134.014280	44.937363	-1072.914200	133.710220	39.247341	-1032.719800	149.222780	25.608850	-992.780820	155.764430	625.894900	-1379.902300	118.808780	751.703740	-1355.944100	103.078190	659.954280	-1333.888200	204.669200	490.521510	-1363.710300	203.181230	433.834750	-1243.635700	225.438830	296.202730	-1382.702400	185.900770	346.008970	-1327.588400	191.887990	264.693970	-1330.559900	269.038940	62.204319	-1355.716400	233.663650	89.731087	-1275.876800	305.031680	58.087166	-1313.959800	176.604770	69.050423	-1340.206100	126.073490	49.261913	-1315.210100	123.849480	40.534096	-1351.299900	139.809430	20.596941	-1388.899800	190.526550	832.121337	-1291.593008	194.155757	831.706133	-1102.116511	203.925215	462.178130	-1303.673000	208.903015	469.756210	-1087.744850	251.351295	75.967703	-1315.796600	256.113585	75.737076	-1067.566150
